<svg width="24" height="20" viewBox="0 0 24 20" fill="none" xmlns="http://www.w3.org/2000/svg">
<path d="M1.20792 0.0299821C0.757086 0.140185 0.341318 0.480814 0.13093 0.91161C-0.0393848 1.25725 -0.044394 1.90344 0.120911 2.23906C0.291226 2.59472 0.496605 2.80511 0.842243 2.99546L1.15783 3.16577H12.0028H22.8479L23.1033 3.03052C23.484 2.83015 23.6393 2.67987 23.8297 2.32923C23.985 2.03869 24 1.97858 24 1.58786C24 1.19714 23.985 1.13703 23.8297 0.846489C23.6443 0.500851 23.434 0.300481 23.0733 0.125158L22.8479 0.00994492L12.103 -7.34329e-05C6.19212 -7.34329e-05 1.29308 0.00994492 1.20792 0.0299821Z" fill="#fff"/>
<path d="M1.20792 8.04475C0.757086 8.15496 0.341318 8.49558 0.13093 8.92638C-0.0393848 9.27202 -0.044394 9.91821 0.120911 10.2538C0.291226 10.6095 0.496605 10.8199 0.842243 11.0102L1.15783 11.1805H12.0028H22.8479L23.1033 11.0453C23.484 10.8449 23.6393 10.6946 23.8297 10.344C23.985 10.0535 24 9.99335 24 9.60263C24 9.21191 23.985 9.1518 23.8297 8.86126C23.6443 8.51562 23.434 8.31525 23.0733 8.13993L22.8479 8.02472L12.103 8.0147C6.19212 8.0147 1.29308 8.02472 1.20792 8.04475Z" fill="#fff"/>
<path d="M1.20792 16.03C0.757086 16.1402 0.341318 16.4808 0.13093 16.9116C-0.0393848 17.2572 -0.044394 17.9034 0.120911 18.2391C0.291226 18.5947 0.496605 18.8051 0.842243 18.9955L1.15783 19.1658H12.0028H22.8479L23.1033 19.0305C23.484 18.8302 23.6393 18.6799 23.8297 18.3292C23.985 18.0387 24 17.9786 24 17.5879C24 17.1971 23.985 17.137 23.8297 16.8465C23.6443 16.5009 23.434 16.3005 23.0733 16.1252L22.8479 16.0099L12.103 15.9999C6.19212 15.9999 1.29308 16.0099 1.20792 16.03Z" fill="#fff"/>
</svg>
